<?xml version="1.0" encoding="utf-8"?>
<svg xmlns="http://www.w3.org/2000/svg" fill="none" viewBox="0 0 200 89">
  <path d="M0 19.168v12.485l19.189 9.532 12.532-6.217-19.189-9.584L38.43 12.537V0L0 19.168Zm25.898 44.448 12.532 6.268V57.4l-12.532 6.217ZM12.533 44.5 0 38.283v12.485L12.533 44.5Z" fill="#D05F27"/>
  <path d="m12.533 63.616 25.896-12.848V38.232L0 57.399v12.485L38.43 89V76.515l-25.898-12.9Zm13.365-38.232 12.532 6.268V19.169l-12.532 6.216Z" fill="#D05F27"/>
  <path d="M46.906 31.342c0-6.01 4.576-10.413 10.817-10.413 2.392 0 4.16.57 5.356 1.192l.572 4.92c-.52-.517-2.548-1.864-5.408-1.864-4.056 0-6.5 2.642-6.5 6.372 0 3.574 2.6 6.061 6.396 6.061 3.276 0 5.148-1.658 5.824-2.227l-.624 5.18c-1.248.673-3.016 1.295-5.356 1.295-6.189 0-11.077-3.937-11.077-10.516ZM80.24 41.495l-1.456-3.73h-7.645l-1.456 3.73h-4.94l8.633-20.152h3.328l8.528 20.152H80.24Zm-7.644-7.511h4.784l-2.392-6.113-2.392 6.113Zm22.152-12.641c6.032 0 8.788 2.901 8.788 7.201 0 4.352-3.38 7.253-9.048 7.253-.884 0-1.82-.052-2.704-.155v5.853h-4.732V21.343h7.696Zm3.9 7.201c0-1.813-1.456-3.16-4.16-3.16h-2.704v6.217a24.5 24.5 0 0 0 2.704.155c2.756 0 4.16-1.45 4.16-3.212Zm7.021 11.916-.364-4.663c1.872 1.347 4.472 2.176 6.812 2.176 2.548 0 4.004-.777 4.004-2.176 0-1.295-1.092-1.917-4.316-2.59-4.264-.933-6.5-2.85-6.5-5.958 0-3.885 3.12-6.268 7.956-6.268 2.236 0 4.368.414 5.772 1.088l.364 4.403c-1.872-1.088-3.848-1.658-6.136-1.658-2.028 0-3.276.622-3.276 1.814 0 1.14.832 1.554 3.9 2.279 4.836 1.14 6.76 2.901 6.76 6.424 0 3.989-3.38 6.527-8.32 6.527-2.34 0-4.628-.466-6.656-1.399Zm33.281-14.972h-6.136v16.007h-4.785V25.488h-6.656l.26-4.145h17.629l-.312 4.145Zm.26 5.905c0-5.905 4.472-10.464 10.764-10.464 6.189 0 10.661 4.403 10.661 10.465 0 5.957-4.472 10.464-10.661 10.464-6.292 0-10.764-4.61-10.764-10.464Zm16.641 0c0-3.678-2.496-6.216-5.877-6.216-3.484 0-5.98 2.538-5.98 6.216 0 3.575 2.496 6.217 5.98 6.217 3.381 0 5.877-2.538 5.877-6.216Zm21.06-10.05h4.629v20.411h-3.225l-10.296-12.277v12.018h-4.576V21.343h3.172l10.296 12.174V21.343ZM200 37.455l-.312 4.04h-9.776c-2.86 0-4.628-.932-4.628-4.61V21.343h14.248l-.26 3.99h-9.204v3.937h7.956l-.26 3.937h-7.644v3.212c0 .673.26 1.087.988 1.087H200v-.051Zm-153.094 20.1c0-6.01 4.576-10.413 10.817-10.413 2.392 0 4.16.57 5.356 1.191l.572 4.922c-.52-.518-2.548-1.865-5.408-1.865-4.056 0-6.5 2.642-6.5 6.372 0 3.574 2.6 6.061 6.396 6.061 3.276 0 5.148-1.658 5.824-2.227l-.624 5.18c-1.248.673-3.016 1.295-5.356 1.295-6.189 0-11.077-3.937-11.077-10.516Zm18.357.103c0-5.905 4.472-10.464 10.764-10.464 6.188 0 10.66 4.403 10.66 10.464 0 5.958-4.472 10.465-10.66 10.465-6.292-.052-10.764-4.61-10.764-10.465Zm16.64 0c0-3.678-2.496-6.216-5.876-6.216-3.484 0-5.98 2.538-5.98 6.216 0 3.575 2.496 6.217 5.98 6.217 3.38-.052 5.876-2.59 5.876-6.217Zm15.029-10.102c6.032 0 8.788 2.902 8.788 7.201 0 4.352-3.38 7.253-9.048 7.253-.884 0-1.82-.052-2.704-.155v5.853h-4.732V47.557h7.696Zm3.848 7.201c0-1.813-1.456-3.16-4.16-3.16h-2.704v6.217a24.5 24.5 0 0 0 2.704.155c2.808 0 4.16-1.45 4.16-3.212Zm15.029-7.201c6.032 0 8.788 2.902 8.788 7.201 0 4.352-3.38 7.253-9.048 7.253-.884 0-1.82-.052-2.704-.155v5.853h-4.732V47.557h7.696Zm3.9 7.201c0-1.813-1.456-3.16-4.16-3.16h-2.704v6.217a24.5 24.5 0 0 0 2.704.155c2.756 0 4.16-1.45 4.16-3.212Zm21.945 8.911-.312 4.04h-9.776c-2.86 0-4.628-.932-4.628-4.61V47.557h14.248l-.26 3.988h-9.204v3.938h7.904l-.26 3.937h-7.644v3.212c0 .673.26 1.087.988 1.087h8.944v-.051Zm14.976 4.403-4.316-6.786a27.42 27.42 0 0 1-2.912-.156v6.58h-4.732V47.555h8.164c4.94 0 8.165 2.332 8.165 6.735 0 2.746-1.56 4.922-4.057 6.113l4.733 7.356-5.045.311Zm-7.176-16.526v5.647c.936.104 1.82.155 2.756.155 2.704 0 3.9-1.14 3.9-2.952 0-1.762-1.404-2.85-3.536-2.85h-3.12Z" style="fill: rgb(90, 90, 90);"/>
</svg>